:version 1.10
:name ASF
:units
  mass 1
  length 1
  angle deg
:documentation
  ASF file generated by Kaydara
:root
  axis xyz
  order  tx ty tz rx ry rz
  position 0 0 0
  orientation 0 0 0
:bonedata
  begin
    id 1
    name RightUpLegDummy
    direction -0.718183 -0.695806 0.00816078
    length 4.904
    axis 0 0 0 xyz
  end
  begin
    id 2
    name RightUpLeg
    direction -0.0736652 -0.994202 0.0783343
    length 17.4976
    axis -2.72909 -3.00389 -4.00133 xyz
    dof rx ry rz
  end
  begin
    id 3
    name RightLeg
    direction -0.0389037 -0.994596 -0.0962598
    length 16.5821
    axis 3.95836 -18.5909 -4.46993 xyz
    dof rx ry rz
  end
  begin
    id 4
    name RightFoot
    direction -0.311643 -0.412678 0.855906
    length 3.77069
    axis -1.99483 -18.8351 -3.27644 xyz
    dof rx ry rz
  end
  begin
    id 5
    name RightToes
    direction -0.317852 0.0389852 0.947339
    length 3.85082
    axis -2.00228 -18.1713 -3.25211 xyz
    dof rx ry rz
  end
  begin
    id 6
    name SpineDummy
    direction 8.3039e-015 1 4.44677e-016
    length 4.6813
    axis 0 0 0 xyz
  end
  begin
    id 7
    name Spine
    direction -0.000262373 0.999988 0.00493267
    length 10.1015
    axis -0.00246081 0.00062579 0.0150362 xyz
    dof rx ry rz
  end
  begin
    id 8
    name Spine1
    direction 0 0 0
    length 0
    axis -0.00349562 0.000650293 0.0196666 xyz
    dof rx ry rz
  end
  begin
    id 9
    name HEadDummy
    direction -0.000343232 0.999999 0.00123745
    length 3.43865
    axis -0.00349562 0.000650293 0.0196666 xyz
  end
  begin
    id 10
    name HEad
    direction -0.0461221 0.980933 0.188796
    length 5.12695
    axis -0.00351404 -7.04812 0.0199272 xyz
    dof rx ry rz
  end
  begin
    id 11
    name LeftShoulder1Dummy
    direction 0.998904 -0.0399089 -0.0244534
    length 3.5433
    axis -0.00349562 0.000650293 0.0196666 xyz
  end
  begin
    id 12
    name LeftShoulder1
    direction 0.99951 1.64443e-005 0.0312999
    length 4.05031
    axis -0.00349562 0.000650293 0.0196666 xyz
    dof rx ry rz
  end
  begin
    id 13
    name LeftArm
    direction 0.984791 0.0515299 0.165927
    length 12.9126
    axis -64.823 -10.7743 5.20463 xyz
    dof rx ry rz
  end
  begin
    id 14
    name LeftForeArm
    direction 0.984968 0.0534808 0.16425
    length 10.8596
    axis -30.0462 -7.70601 1.87451 xyz
    dof rx ry rz
  end
  begin
    id 15
    name LeftHand
    direction 0.975871 0.0289682 0.216418
    length 6.62295
    axis -20.1348 -6.98077 1.86072 xyz
    dof rx ry rz
  end
  begin
    id 16
    name RightShoulderDummy
    direction -0.998877 -0.0405946 -0.0244307
    length 3.5433
    axis -0.00349562 0.000650293 0.0196666 xyz
  end
  begin
    id 17
    name RightShoulder
    direction -0.998933 -0.0249743 -0.0388558
    length 4.05031
    axis -0.0205316 -4.02113 1.41395 xyz
    dof rx ry rz
  end
  begin
    id 18
    name RightArm
    direction -0.997559 0.068664 0.0127103
    length 12.9638
    axis -67.3882 1.84188 -6.15987 xyz
    dof rx ry rz
  end
  begin
    id 19
    name RightForeArm
    direction -0.991508 0.0912848 0.0926241
    length 10.8312
    axis -22.1975 3.41087 -4.28711 xyz
    dof rx ry rz
  end
  begin
    id 20
    name RightHand
    direction -0.989262 0.0600788 0.133232
    length 6.57864
    axis -12.2911 2.17515 -4.39675 xyz
    dof rx ry rz
  end
  begin
    id 21
    name LeftUpLegDummy
    direction 0.718183 -0.695806 0.00816078
    length 4.904
    axis 0 0 0 xyz
  end
  begin
    id 22
    name LeftUpLeg
    direction 0.0831398 -0.99469 0.0606531
    length 17.4976
    axis -1.71016 2.29552 4.63832 xyz
    dof rx ry rz
  end
  begin
    id 23
    name LeftLeg
    direction 0.0498442 -0.991778 -0.117862
    length 16.5821
    axis 5.13757 15.5727 5.13348 xyz
    dof rx ry rz
  end
  begin
    id 24
    name LeftFoot
    direction 0.269026 -0.433896 0.85986
    length 3.77069
    axis -0.576502 15.6961 4.10267 xyz
    dof rx ry rz
  end
  begin
    id 25
    name LeftToes
    direction 0.277311 0.0251143 0.960452
    length 3.85048
    axis -0.576502 15.6961 4.10267 xyz
    dof rx ry rz
  end
:hierarchy
  begin
    root RightUpLegDummy SpineDummy LeftUpLegDummy
    RightUpLegDummy RightUpLeg
    RightUpLeg RightLeg
    RightLeg RightFoot
    RightFoot RightToes
    SpineDummy Spine
    Spine Spine1
    Spine1 HEadDummy LeftShoulder1Dummy RightShoulderDummy
    HEadDummy HEad
    LeftShoulder1Dummy LeftShoulder1
    LeftShoulder1 LeftArm
    LeftArm LeftForeArm
    LeftForeArm LeftHand
    RightShoulderDummy RightShoulder
    RightShoulder RightArm
    RightArm RightForeArm
    RightForeArm RightHand
    LeftUpLegDummy LeftUpLeg
    LeftUpLeg LeftLeg
    LeftLeg LeftFoot
    LeftFoot LeftToes
  end

:SAMPLES-PER-SECOND 30
:FULLY-SPECIFIED
:DEGREES
31
root  6.35311 40.0456 -85.5161 -1.60714 -8.81672 0.778305
RightUpLeg  -0.678294 -0.400832 1.87258
RightLeg  2.98408 -4.58328 0.417058
RightFoot  -1.77278 0.203058 -2.09059
RightToes  5.82077e-011 -3.18055e-015 -2.98177e-016
Spine  -2.72495 1.37022 0.210103
Spine1  11.9912 1.08121 1.73937
HEad  -14.0863 3.6835 -1.03913
LeftShoulder1  -3.88251e-019 9.70628e-020 -3.87848e-018
LeftArm  -23.52 50.7478 -73.0675
LeftForeArm  4.78406 -10.9317 -5.00901
LeftHand  -0.621233 -0.614709 12.9792
RightShoulder  8.08407 10.8915 37.4864
RightArm  10.7569 -39.0544 20.368
RightForeArm  13.7549 15.6614 -4.32181
RightHand  -0.843177 0.449226 -16.3858
LeftUpLeg  -0.667382 -3.41372 -4.0709
LeftLeg  3.31225 15.4564 3.09345
LeftFoot  -1.05338 -0.00526383 -0.0238054
LeftToes  1.39127e-010 -3.60802e-011 -7.31315e-011
32
root  6.35294 40.0445 -85.5086 -1.62523 -8.82907 0.800345
RightUpLeg  -0.663607 -0.443173 1.83194
RightLeg  3.01087 -4.53263 0.430851
RightFoot  -1.81681 0.203831 -2.09854
RightToes  5.82077e-011 -3.18055e-015 -2.98177e-016
Spine  -2.83664 1.3343 0.133076
Spine1  12.1836 1.03054 1.79102
HEad  -14.2363 3.65302 -1.07508
LeftShoulder1  -3.88251e-019 9.70628e-020 -3.87848e-018
LeftArm  -23.6233 50.824 -73.0657
LeftForeArm  4.74505 -11.1038 -4.94894
LeftHand  -0.619057 -0.784862 12.5611
RightShoulder  8.11929 10.903 37.6323
RightArm  11.0647 -38.9177 20.2012
RightForeArm  13.5314 15.7518 -4.33709
RightHand  -0.821813 0.306144 -16.3598
LeftUpLeg  -0.643068 -3.43451 -4.10466
LeftLeg  3.3262 15.4907 3.10994
LeftFoot  -1.07054 -0.0024971 -0.0528762
LeftToes  1.39127e-010 -3.60802e-011 -7.31315e-011
33
root  6.35265 40.0426 -85.4999 -1.55703 -8.84638 0.82608
RightUpLeg  -0.778882 -0.468107 1.79579
RightLeg  3.11106 -4.47423 0.41427
RightFoot  -1.87687 0.202544 -2.08532
RightToes  5.82077e-011 -3.18055e-015 -2.98177e-016
Spine  -3.0783 1.29513 0.00664302
Spine1  12.4019 0.960045 1.90242
HEad  -14.3916 3.67317 -1.14763
LeftShoulder1  -3.88251e-019 9.70628e-020 -3.87848e-018
LeftArm  -23.8053 50.9901 -73.1145
LeftForeArm  4.44904 -11.3243 -4.86197
LeftHand  -0.603766 -0.722449 12.3866
RightShoulder  8.16246 10.9169 37.8114
RightArm  11.3625 -38.7499 19.9891
RightForeArm  13.4928 15.8273 -4.33785
RightHand  -0.833622 0.552108 -15.9349
LeftUpLeg  -0.716216 -3.47048 -4.14078
LeftLeg  3.34869 15.5398 3.13496
LeftFoot  -1.07787 -0.00170162 -0.0612344
LeftToes  1.39127e-010 -3.60802e-011 -7.31315e-011
34
root  6.35257 40.0406 -85.4894 -1.42073 -8.87169 0.840057
RightUpLeg  -0.976066 -0.454219 1.78927
RightLeg  3.23047 -4.45952 0.371339
RightFoot  -1.93808 0.199429 -2.05334
RightToes  5.82077e-011 -3.18055e-015 -2.98177e-016
Spine  -3.45745 1.26531 -0.191275
Spine1  12.691 0.867699 2.1283
HEad  -14.4743 3.66989 -1.30823
LeftShoulder1  -3.88251e-019 9.70628e-020 -3.87848e-018
LeftArm  -23.9932 51.2066 -73.3048
LeftForeArm  4.01556 -11.5814 -4.8205
LeftHand  -0.581753 -0.474694 12.465
RightShoulder  8.18042 10.9188 37.8944
RightArm  11.1659 -38.6451 19.8965
RightForeArm  13.5205 15.7986 -4.37634
RightHand  -0.87488 1.1023 -15.3452
LeftUpLeg  -0.862671 -3.49746 -4.15798
LeftLeg  3.38053 15.5891 3.15926
LeftFoot  -1.09004 -0.00253621 -0.0524652
LeftToes  1.39127e-010 -3.60802e-011 -7.31315e-011
35
root  6.353 40.0397 -85.4766 -1.30454 -8.90184 0.831319
RightUpLeg  -1.10192 -0.432031 1.80334
RightLeg  3.26655 -4.46801 0.362542
RightFoot  -1.97075 0.198224 -2.04096
RightToes  5.82077e-011 -3.18055e-015 -2.98177e-016
Spine  -3.78348 1.24389 -0.386813
Spine1  12.9296 0.780924 2.36579
HEad  -14.3623 3.65073 -1.46998
LeftShoulder1  -3.88251e-019 9.70628e-020 -3.87848e-018
LeftArm  -24.1113 51.4159 -73.5688
LeftForeArm  3.88473 -11.7818 -4.83663
LeftHand  -0.574259 -0.429803 12.4059
RightShoulder  8.1775 10.9107 37.8985
RightArm  10.4552 -38.6947 19.9089
RightForeArm  13.298 15.6946 -4.51994
RightHand  -0.916632 1.59257 -14.9778
LeftUpLeg  -0.986982 -3.49057 -4.14403
LeftLeg  3.42876 15.6133 3.17653
LeftFoot  -1.12692 -0.00256623 -0.0521498
LeftToes  1.39127e-010 -3.60802e-011 -7.31315e-011
36
root  6.35426 40.0387 -85.4628 -1.25256 -8.92961 0.812048
RightUpLeg  -1.10731 -0.440116 1.80584
RightLeg  3.22041 -4.43548 0.410091
RightFoot  -1.98189 0.199231 -2.0513
RightToes  5.82077e-011 -3.18055e-015 -2.98177e-016
Spine  -3.91639 1.20954 -0.488497
Spine1  12.9977 0.722467 2.45212
HEad  -14.0482 3.68177 -1.48229
LeftShoulder1  -3.88251e-019 9.70628e-020 -3.87848e-018
LeftArm  -24.0772 51.5507 -73.6466
LeftForeArm  4.44697 -11.815 -4.86777
LeftHand  -0.581355 -0.752312 11.8752
RightShoulder  8.1884 10.9091 37.955
RightArm  9.68557 -38.8481 19.9039
RightForeArm  12.8497 15.6034 -4.73153
RightHand  -0.925677 1.7426 -14.8184
LeftUpLeg  -1.04951 -3.47686 -4.12596
LeftLeg  3.49934 15.6264 3.21075
LeftFoot  -1.18087 -0.000379327 -0.0751281
LeftToes  1.39127e-010 -3.60802e-011 -7.31315e-011
37
root  6.35813 40.0368 -85.4478 -1.21791 -8.96165 0.800909
RightUpLeg  -1.10255 -0.469057 1.78747
RightLeg  3.19779 -4.36308 0.456478
RightFoot  -2.01772 0.198044 -2.03911
RightToes  5.82077e-011 -3.18055e-015 -2.98177e-016
Spine  -3.95916 1.15003 -0.472476
Spine1  12.974 0.688149 2.35126
HEad  -13.7573 3.73796 -1.34548
LeftShoulder1  -3.88251e-019 9.70628e-020 -3.87848e-018
LeftArm  -23.6998 51.6456 -73.3467
LeftForeArm  5.72487 -11.8397 -4.92768
LeftHand  -0.578693 -1.20607 10.9781
RightShoulder  8.21346 10.9161 38.061
RightArm  9.23468 -39.0054 19.8825
RightForeArm  12.5071 15.5585 -4.88065
RightHand  -0.891958 1.57674 -14.6116
LeftUpLeg  -1.10484 -3.49685 -4.13614
LeftLeg  3.59417 15.6709 3.28419
LeftFoot  -1.23606 0.0024326 -0.104673
LeftToes  1.39127e-010 -3.60802e-011 -7.31315e-011
38
root  6.36814 40.0337 -85.429 -1.1395 -9.03556 0.803429
RightUpLeg  -1.18464 -0.493144 1.75663
RightLeg  3.23937 -4.26992 0.46541
RightFoot  -2.0831 0.193519 -1.99265
RightToes  5.82077e-011 -3.18055e-015 -2.98177e-016
Spine  -4.08701 1.10254 -0.373191
Spine1  13.004 0.685649 2.17076
HEad  -13.7178 3.72165 -1.19279
LeftShoulder1  -3.88251e-019 9.70628e-020 -3.87848e-018
LeftArm  -22.849 51.8335 -72.7672
LeftForeArm  7.33962 -12.1855 -5.06529
LeftHand  -0.561366 -1.48615 10.207
RightShoulder  8.20522 10.9104 38.0338
RightArm  9.10843 -39.2029 19.9579
RightForeArm  12.3758 15.5423 -4.90582
RightHand  -0.851635 1.35632 -14.398
LeftUpLeg  -1.19848 -3.52685 -4.16593
LeftLeg  3.68991 15.7663 3.34766
LeftFoot  -1.29779 0.00212281 -0.101419
LeftToes  1.39127e-010 -3.60802e-011 -7.31315e-011
39
root  6.38681 40.0321 -85.4062 -1.0269 -9.20163 0.81284
RightUpLeg  -1.30501 -0.512734 1.71438
RightLeg  3.25378 -4.09177 0.483011
RightFoot  -2.10781 0.191015 -1.96694
RightToes  5.82077e-011 -3.18055e-015 -2.98177e-016
Spine  -4.29353 1.13306 -0.231197
Spine1  13.089 0.757347 2.00939
HEad  -13.8711 3.59531 -1.09178
LeftShoulder1  -3.88251e-019 9.70628e-020 -3.87848e-018
LeftArm  -21.7755 52.1201 -72.1456
LeftForeArm  8.7185 -12.8237 -5.22268
LeftHand  -0.545333 -1.46474 9.95426
RightShoulder  8.13981 10.8799 37.7844
RightArm  9.05526 -39.5211 20.1669
RightForeArm  12.3527 15.5145 -4.85404
RightHand  -0.846268 1.29569 -14.4322
LeftUpLeg  -1.28886 -3.51125 -4.18517
LeftLeg  3.7415 15.9157 3.32829
LeftFoot  -1.37049 -0.00256961 -0.0521143
LeftToes  1.39127e-010 -3.60802e-011 -7.31315e-011
40
root  6.40968 40.033 -85.385 -0.949549 -9.45546 0.809173
RightUpLeg  -1.35188 -0.522177 1.68102
RightLeg  3.17241 -3.8063 0.540002
RightFoot  -2.04925 0.193244 -1.98983
RightToes  5.82077e-011 -3.18055e-015 -2.98177e-016
Spine  -4.41553 1.24831 -0.073873
Spine1  13.1403 0.91019 1.87285
HEad  -14.0003 3.39646 -1.02892
LeftShoulder1  -3.88251e-019 9.70628e-020 -3.87848e-018
LeftArm  -20.9874 52.3049 -71.5758
LeftForeArm  9.40567 -13.2798 -5.27277
LeftHand  -0.53297 -1.2418 10.0669
RightShoulder  8.06495 10.845 37.4976
RightArm  8.86053 -39.8496 20.4116
RightForeArm  12.4741 15.4315 -4.78482
RightHand  -0.863133 1.33588 -14.633
LeftUpLeg  -1.31302 -3.4591 -4.18424
LeftLeg  3.75644 16.1212 3.26941
LeftFoot  -1.438 -0.00682046 -0.00744942
LeftToes  1.39127e-010 -3.60802e-011 -7.31315e-011
41
root  6.42933 40.0331 -85.3707 -0.949362 -9.70176 0.769893
RightUpLeg  -1.30611 -0.498933 1.69607
RightLeg  3.0731 -3.56552 0.58462
RightFoot  -1.97722 0.194755 -2.00534
RightToes  5.82077e-011 -3.18055e-015 -2.98177e-016
Spine  -4.35649 1.36379 0.0651825
Spine1  13.1313 1.05978 1.75244
HEad  -14.0527 3.19457 -1.02792
LeftShoulder1  -3.88251e-019 9.70628e-020 -3.87848e-018
LeftArm  -20.7225 52.2552 -71.0057
LeftForeArm  9.2001 -13.2407 -5.20464
LeftHand  -0.51979 -0.992717 10.2152
RightShoulder  8.05018 10.8389 37.4389
RightArm  8.61173 -39.9599 20.5278
RightForeArm  12.7896 15.3231 -4.73939
RightHand  -0.859749 1.31475 -14.6197
LeftUpLeg  -1.2885 -3.4269 -4.17054
LeftLeg  3.82348 16.3358 3.2993
LeftFoot  -1.50186 -0.0051664 -0.0248291
LeftToes  1.39127e-010 -3.60802e-011 -7.31315e-011
42
root  6.44707 40.0306 -85.3594 -0.985233 -9.85015 0.705826
RightUpLeg  -1.25531 -0.46213 1.74271
RightLeg  3.06434 -3.47821 0.579458
RightFoot  -1.97611 0.191195 -1.96879
RightToes  5.82077e-011 -3.18055e-015 -2.98177e-016
Spine  -4.20862 1.40514 0.133077
Spine1  13.0982 1.11616 1.69989
HEad  -14.114 3.0992 -1.10969
LeftShoulder1  -3.88251e-019 9.70628e-020 -3.87848e-018
LeftArm  -20.8125 52.0938 -70.4565
LeftForeArm  8.26482 -12.8757 -5.10459
LeftHand  -0.513176 -0.78295 10.4406
RightShoulder  8.11002 10.8691 37.6633
RightArm  8.58559 -39.8035 20.3868
RightForeArm  13.0883 15.2874 -4.7464
RightHand  -0.835702 1.25159 -14.3452
LeftUpLeg  -1.28604 -3.41215 -4.14815
LeftLeg  3.98662 16.4675 3.41541
LeftFoot  -1.59767 -0.000655871 -0.0722223
LeftToes  1.39127e-010 -3.60802e-011 -7.31315e-011
